<?xml version="1.0" standalone="no"?>
<!DOCTYPE svg PUBLIC "-//W3C//DTD SVG 20010904//EN"
 "http://www.w3.org/TR/2001/REC-SVG-20010904/DTD/svg10.dtd">
<svg version="1.0" xmlns="http://www.w3.org/2000/svg"
 width="1112.000000pt" height="1112.000000pt" viewBox="0 0 1112.000000 1112.000000"
 preserveAspectRatio="xMidYMid meet">

<g transform="translate(0.000000,1112.000000) scale(0.100000,-0.100000)"
fill="#000000" stroke="none">
<path d="M8449 9156 c-91 -32 -158 -99 -179 -176 -7 -26 -10 -260 -8 -702 l3
-663 24 -45 c50 -95 112 -151 204 -185 l47 -18 0 -150 c0 -131 3 -156 20 -193
42 -86 150 -126 245 -90 36 14 78 54 230 220 l186 203 292 6 c161 4 405 7 543
7 248 0 250 0 302 26 58 29 106 79 133 138 17 39 19 82 19 736 0 654 -2 697
-19 736 -26 58 -72 106 -128 134 l-48 25 -915 2 c-733 2 -922 0 -951 -11z
m1848 -87 c38 -14 92 -67 109 -106 11 -26 14 -154 14 -695 0 -654 0 -662 -21
-706 -13 -26 -38 -54 -62 -70 l-41 -27 -557 -3 -557 -3 -197 -214 c-108 -117
-203 -216 -212 -219 -23 -9 -72 -7 -94 4 -41 23 -49 59 -49 238 0 124 -3 172
-12 180 -7 5 -32 13 -55 17 -52 8 -122 52 -158 98 -55 73 -55 78 -55 736 0
386 4 620 10 643 14 50 55 97 105 119 38 18 88 19 922 19 598 0 891 -3 910
-11z"/>
<path d="M8559 8891 c-16 -16 -29 -40 -30 -53 -1 -13 0 -268 1 -568 2 -594 1
-585 60 -615 25 -13 130 -15 800 -15 l770 0 38 34 37 34 3 564 c2 411 -1 570
-9 591 -25 59 4 57 -854 57 l-787 0 -29 -29z m1611 -51 c6 -12 10 -40 8 -63
l-3 -42 -795 0 -795 0 0 53 c1 35 6 56 15 62 9 6 335 10 787 10 767 0 772 0
783 -20z m-1560 -641 c0 -304 -3 -458 -10 -454 -6 4 -10 168 -10 461 0 296 3
454 10 454 7 0 10 -160 10 -461z m735 356 c0 -20 -8 -20 -314 -23 -189 -1
-319 2 -324 7 -5 5 -7 17 -4 25 6 15 42 16 324 14 310 -3 318 -3 318 -23z
m480 -155 c-4 -6 -117 -10 -305 -10 -188 0 -301 4 -305 10 -4 7 100 10 305 10
205 0 309 -3 305 -10z m-366 -119 c8 -5 11 -16 8 -25 -6 -14 -46 -16 -377 -16
-331 0 -371 2 -377 16 -3 9 0 20 8 25 8 5 174 9 369 9 195 0 361 -4 369 -9z
m360 0 c8 -5 11 -16 8 -25 -5 -14 -26 -16 -136 -16 -130 0 -149 5 -137 35 4
12 30 15 128 15 68 0 129 -4 137 -9z m65 -292 c6 -5 4 -10 -5 -13 -25 -8 -667
-13 -680 -5 -7 4 -9 14 -6 23 6 14 42 15 344 10 186 -4 342 -10 347 -15z
m-804 -9 c0 -6 -65 -10 -174 -10 -106 0 -177 4 -181 10 -4 7 57 10 174 10 114
0 181 -4 181 -10z"/>
<path d="M8710 8800 c0 -13 7 -20 20 -20 13 0 20 7 20 20 0 13 -7 20 -20 20
-13 0 -20 -7 -20 -20z"/>
<path d="M8800 8800 c0 -16 5 -21 23 -18 12 2 22 10 22 18 0 8 -10 16 -22 18
-18 3 -23 -2 -23 -18z"/>
<path d="M8890 8801 c0 -24 25 -34 40 -16 15 18 5 35 -21 35 -12 0 -19 -7 -19
-19z"/>
<path d="M5540 9103 c-460 -43 -851 -257 -1070 -585 -135 -201 -191 -381 -191
-613 0 -245 75 -459 237 -675 68 -90 193 -219 262 -270 29 -21 32 -29 32 -75
l0 -52 -50 -6 c-160 -19 -261 -165 -232 -335 28 -165 150 -307 285 -329 33 -5
36 -9 67 -92 152 -402 425 -684 788 -815 87 -31 253 -66 315 -66 45 0 60 -9
69 -45 3 -11 9 -27 12 -36 6 -13 -44 -38 -266 -132 -151 -65 -302 -134 -337
-154 -78 -46 -194 -161 -239 -235 -18 -31 -125 -251 -237 -489 -112 -239 -210
-445 -218 -459 -12 -24 -16 -25 -129 -28 l-117 -3 -15 53 c-8 29 -94 346 -191
703 -276 1019 -294 1085 -309 1114 -22 41 -90 98 -133 111 -27 8 -419 10
-1373 8 l-1335 -3 -46 -27 c-57 -34 -96 -89 -111 -159 -11 -53 -9 -62 85 -409
466 -1722 517 -1905 544 -1949 20 -32 44 -53 86 -75 53 -28 60 -36 76 -84 l18
-52 -376 0 c-215 0 -391 -4 -410 -10 -127 -36 -197 -186 -142 -305 23 -52 90
-111 139 -125 28 -7 1408 -9 4573 -8 l4534 3 46 27 c25 15 59 46 75 69 26 38
29 50 29 124 0 72 -3 86 -27 123 -15 22 -49 54 -75 69 -46 27 -53 28 -210 31
l-163 4 0 30 c0 33 -56 98 -84 98 -14 0 -16 19 -16 145 0 126 2 145 16 145 9
0 31 15 50 34 39 39 45 86 19 136 -28 54 -54 60 -270 60 l-195 0 0 43 c1 23
12 155 25 292 13 138 38 401 55 585 17 184 33 341 35 348 2 6 19 12 38 12 44
0 57 15 57 67 0 75 -58 156 -126 177 -15 5 -23 18 -28 45 -6 41 -42 86 -79
100 -14 5 -210 17 -436 27 -385 17 -413 17 -446 1 -45 -22 -75 -70 -75 -124 0
-34 -4 -43 -22 -48 -70 -22 -128 -102 -128 -178 0 -52 13 -67 57 -67 19 0 36
-6 38 -12 4 -13 115 -1214 115 -1249 0 -16 -15 -18 -167 -21 -164 -3 -170 -4
-233 -34 -111 -53 -185 -148 -210 -268 -20 -100 8 -220 70 -297 16 -21 30 -40
30 -43 0 -3 -115 -6 -255 -6 l-255 0 0 128 0 129 54 12 c154 34 294 181 328
344 16 77 -23 931 -46 1017 -27 96 -77 181 -151 256 -63 63 -103 89 -405 261
l-335 192 -3 146 -3 147 68 72 c111 116 192 251 263 435 l36 94 88 18 c104 21
176 54 239 109 167 147 184 413 36 558 -37 36 -42 45 -32 60 129 184 208 375
249 602 9 47 18 153 21 235 9 238 -22 409 -102 571 -50 103 -111 177 -185 224
l-50 32 33 39 c57 66 70 135 38 205 -23 51 -63 80 -130 96 -42 9 -61 9 -111
-5 -33 -9 -61 -17 -63 -17 -3 0 -7 27 -10 59 -10 113 -71 181 -161 181 -55 0
-89 -16 -132 -62 -39 -41 -60 -82 -69 -133 -4 -22 -8 -46 -11 -53 -2 -8 -42 7
-126 49 -402 202 -825 296 -1178 262z m395 -128 c101 -15 239 -45 233 -51 -2
-1 -46 4 -98 13 -121 19 -418 22 -520 4 -238 -41 -431 -113 -599 -225 l-68
-46 -5 -63 c-12 -150 -146 -297 -271 -297 -38 0 -38 0 -77 -82 -80 -173 -109
-389 -76 -574 8 -50 18 -100 21 -110 3 -10 -4 0 -15 24 -12 23 -30 77 -42 120
-30 109 -30 333 0 443 120 443 510 763 1027 844 112 18 369 18 490 0z m1151
-70 c16 -25 16 -27 -14 -58 -36 -37 -62 -103 -62 -158 0 -39 -20 -69 -47 -69
-12 0 -13 3 -4 14 9 10 10 36 6 83 -9 84 7 146 45 185 35 35 55 35 76 3z m322
-207 c19 -19 14 -25 -28 -32 -22 -3 -79 -26 -126 -51 -89 -47 -128 -55 -138
-30 -3 10 1 15 12 15 10 0 42 19 72 41 30 23 69 48 85 55 38 17 107 18 123 2z
m-536 -1411 c10 -150 50 -350 87 -431 16 -35 45 -82 66 -105 21 -23 36 -43 34
-45 -6 -4 -310 -46 -335 -46 -18 0 -23 8 -28 44 -12 80 -77 153 -157 177 -39
11 -424 3 -509 -12 -104 -18 -179 -98 -183 -196 l-2 -49 -80 2 -80 1 -6 39
c-11 76 -71 150 -141 173 -18 6 -141 15 -272 20 -199 8 -247 7 -280 -5 -70
-24 -66 -35 -66 199 0 118 3 216 6 219 3 4 33 -6 67 -22 243 -109 663 -118
1152 -24 170 33 409 93 565 142 69 22 132 39 140 38 12 -1 17 -25 22 -119z
m-324 -497 c18 -11 41 -34 53 -52 20 -32 20 -42 14 -268 -7 -247 -13 -277 -56
-317 -40 -36 -68 -41 -280 -48 -203 -7 -204 -7 -238 16 -70 49 -72 57 -98 315
l-24 236 20 42 c34 69 64 80 231 87 308 12 342 11 378 -11z m-1132 -16 c104
-6 143 -24 170 -76 20 -39 19 -81 -5 -329 -29 -294 -30 -295 -340 -286 -169 4
-217 9 -236 21 -52 34 -85 214 -85 457 0 135 2 148 22 174 38 49 68 55 233 49
83 -2 191 -7 241 -10z m-606 -274 c0 -121 -3 -220 -6 -220 -4 0 -21 9 -39 20
-104 64 -163 248 -109 341 21 36 92 79 131 79 l23 0 0 -220z m2623 209 c66
-34 117 -120 117 -199 0 -79 -56 -187 -125 -239 -35 -27 -146 -71 -179 -71
-13 0 -10 469 3 483 30 30 144 46 184 26z m-383 -105 c0 -3 -34 -53 -75 -112
-42 -59 -112 -159 -155 -222 -65 -93 -88 -118 -121 -133 -22 -10 -43 -16 -46
-14 -2 3 3 20 13 39 14 26 19 69 24 214 4 99 9 185 13 191 4 6 60 16 124 23
65 6 125 13 133 15 28 5 90 5 90 -1z m-1232 -65 c38 -13 38 -13 52 -169 14
-162 26 -211 60 -258 38 -53 117 -92 189 -93 91 -1 20 -16 -143 -30 -143 -12
-425 -6 -467 9 -21 8 -19 10 17 29 52 26 100 91 112 150 6 26 16 115 23 196
12 143 13 149 38 162 32 17 77 19 119 4z m1286 -329 c-35 -162 -134 -403 -169
-417 -23 -8 -81 42 -105 92 -15 32 -24 72 -27 128 l-5 82 159 222 158 223 3
-128 c2 -90 -2 -149 -14 -202z m-383 -240 c3 -43 14 -95 26 -121 21 -48 82
-114 114 -124 11 -4 19 -10 19 -14 0 -17 -136 -155 -200 -203 -81 -62 -241
-141 -340 -167 -249 -67 -502 -41 -746 78 -182 89 -311 193 -421 341 -41 56
-143 228 -143 242 0 16 68 8 140 -17 356 -121 965 -106 1421 34 52 16 101 28
109 27 11 -1 16 -20 21 -76z m-3136 -502 c-32 -105 -34 -89 93 -561 66 -243
127 -473 136 -512 9 -38 92 -347 185 -685 92 -338 170 -622 172 -630 4 -13
-135 -15 -1193 -18 l-1198 -2 -31 28 c-30 27 -43 69 -315 1072 -366 1348 -332
1211 -311 1254 9 20 31 45 49 56 32 20 53 20 1227 20 l1193 0 -7 -22z m285
-15 c33 -30 17 25 505 -1775 l137 -506 -18 -39 c-26 -53 -78 -78 -133 -63 -54
14 -72 44 -109 180 -17 63 -153 565 -302 1115 -255 936 -271 1002 -260 1038
22 75 121 102 180 50z m2840 -175 c0 -106 -17 -153 -71 -205 -47 -44 -97 -63
-187 -70 -93 -7 -146 6 -203 50 -39 30 -100 119 -89 130 3 3 47 12 99 21 124
22 258 67 356 121 44 24 83 44 88 44 4 1 7 -41 7 -91z m2208 -184 c191 -8 351
-20 357 -25 11 -11 35 -12 -335 6 -168 8 -338 15 -378 15 l-73 0 -15 -35 c-16
-40 -34 -38 -34 4 0 59 -18 58 478 35z m-2722 -143 c74 -53 129 -65 283 -59
l126 5 290 -170 c160 -94 308 -185 330 -203 52 -42 100 -123 119 -199 9 -36
22 -195 32 -396 17 -320 17 -339 0 -382 -21 -56 -81 -113 -133 -126 -21 -5
-240 -23 -488 -41 -247 -17 -455 -33 -462 -35 -17 -6 -23 19 -23 106 l0 79 48
0 c89 0 487 20 579 30 109 10 146 28 173 86 19 38 20 49 10 165 -6 68 -17 169
-25 223 -8 55 -15 101 -15 103 0 2 -4 3 -9 3 -12 0 -30 -106 -47 -284 -8 -83
-17 -153 -22 -157 -4 -4 -99 -12 -212 -18 -113 -6 -297 -18 -409 -26 l-205
-15 -233 60 c-129 33 -247 60 -264 60 -35 0 -34 -18 -9 234 12 109 19 204 17
210 -6 15 -12 -1 -92 -253 l-70 -223 -125 -57 c-105 -47 -135 -65 -185 -116
-52 -51 -67 -75 -103 -162 -23 -56 -42 -115 -42 -132 l0 -30 -192 -3 c-106 -2
-198 -2 -203 0 -6 1 -19 35 -29 75 -10 39 -27 96 -37 126 -10 30 -16 58 -13
62 3 5 63 9 134 9 123 0 130 1 144 23 8 12 116 237 240 499 124 263 239 498
255 522 42 60 115 132 177 173 50 33 594 271 622 272 8 1 38 -17 68 -38z
m3214 -36 c11 -13 -46 -15 -507 -15 -511 0 -521 0 -547 -21 -14 -11 -36 -19
-48 -17 -21 3 -21 4 6 36 l28 32 528 0 c457 0 529 -2 540 -15z m-59 -207 c-1
-31 -6 -69 -10 -85 l-7 -27 -461 -4 c-371 -4 -462 -2 -468 9 -5 7 -11 48 -13
91 l-5 78 484 -2 483 -3 -3 -57z m-175 -192 c8 -20 -42 -234 -82 -355 -19 -57
-52 -142 -74 -188 l-39 -83 -210 -2 c-116 -1 -232 -2 -258 -3 l-48 0 -27 290
c-14 160 -27 305 -27 323 l-1 32 380 0 c313 0 382 -2 386 -14z m123 -310 c-16
-170 -31 -312 -34 -314 -3 -3 -8 -2 -12 2 -8 8 44 613 54 629 20 32 18 -45 -8
-317z m-33 -438 c-3 -29 -8 -84 -11 -123 -3 -38 -8 -85 -11 -102 l-5 -33 -369
0 -369 0 -5 33 c-3 17 -8 64 -11 102 -3 39 -8 94 -11 123 l-6 52 402 0 402 0
-6 -52z m-3366 -186 l225 -58 3 -152 3 -151 -27 -7 c-41 -10 -145 4 -222 31
-88 31 -100 31 -187 0 -67 -24 -81 -25 -302 -25 -279 0 -269 -6 -219 117 57
141 70 154 261 242 168 78 173 78 465 3z m3823 -187 c-2 -7 -283 -12 -805 -15
l-803 -5 -51 -27 c-54 -28 -103 -77 -131 -131 -27 -52 -29 -171 -5 -235 25
-65 4 -54 -30 16 -30 63 -31 167 -1 233 36 80 92 132 178 166 39 15 1651 13
1648 -2z m-88 -197 c3 -35 5 -99 3 -143 l-3 -80 -540 0 -540 0 0 65 0 65 145
8 c80 4 188 10 240 14 l95 7 -80 7 c-44 4 -208 10 -365 14 -340 9 -320 16
-320 -106 l0 -79 -57 0 c-107 0 -167 52 -167 143 0 62 29 111 78 133 25 11
172 13 768 14 l736 0 7 -62z m-3635 -114 c79 -47 80 -178 0 -219 -44 -23
-1316 -23 -1360 0 -79 41 -80 170 -1 218 23 15 93 16 679 17 588 0 657 -2 682
-16z m2490 -84 c0 -49 -2 -90 -4 -90 -3 0 -21 9 -40 21 l-36 21 -36 -21 c-19
-12 -37 -21 -40 -21 -7 0 -5 166 3 173 3 4 39 7 80 7 l73 0 0 -90z m-4021 -93
c6 -23 14 -48 17 -54 5 -10 -247 -13 -1241 -13 -1359 0 -1277 -3 -1324 56 -46
58 -132 55 1257 54 l1278 -1 13 -42z m3789 -12 c6 -3 12 -9 12 -15 0 -16 -117
-12 -150 5 -17 9 -30 17 -30 19 0 4 151 -4 168 -9z m1462 -10 c11 -13 -54 -15
-573 -15 -322 0 -588 4 -591 9 -3 4 -3 11 1 15 3 3 264 6 578 6 497 0 574 -2
585 -15z m411 -178 c44 -29 54 -60 40 -115 -9 -31 -21 -48 -44 -62 -32 -20
-88 -20 -4538 -20 -3187 0 -4515 3 -4537 11 -85 29 -91 159 -9 194 27 12 722
14 4543 15 l4511 0 34 -23z"/>
<path d="M6230 7101 c-64 -20 -154 -91 -132 -105 6 -3 33 -1 62 4 100 19 198
12 278 -19 39 -16 74 -26 77 -21 8 12 -45 85 -79 108 -57 39 -141 52 -206 33z"/>
<path d="M5188 7081 c-53 -18 -108 -55 -134 -93 -15 -21 -24 -41 -21 -45 4 -3
33 4 64 16 76 30 172 37 284 21 50 -6 93 -9 96 -6 12 12 -50 65 -100 86 -56
24 -147 34 -189 21z"/>
<path d="M6182 6679 c-129 -65 -162 -298 -60 -415 40 -45 77 -64 128 -64 79 0
148 61 176 157 59 202 -91 400 -244 322z m51 -102 c24 -17 33 -79 17 -117 -29
-70 -105 -39 -105 44 0 69 45 105 88 73z"/>
<path d="M5243 6680 c-46 -21 -95 -86 -113 -150 -26 -94 2 -220 62 -277 45
-42 70 -53 120 -53 131 0 222 174 174 334 -21 68 -62 122 -110 146 -52 25 -79
25 -133 0z m153 -111 c40 -45 14 -149 -38 -149 -32 0 -58 36 -58 83 0 77 53
113 96 66z"/>
<path d="M2457 4370 c-61 -48 -62 -185 -2 -307 128 -258 341 -159 255 119 -48
156 -174 250 -253 188z"/>
<path d="M8842 4379 c-100 -50 -170 -188 -132 -260 16 -30 37 -23 89 29 35 35
51 60 60 97 15 61 42 99 81 115 17 7 29 18 27 24 -7 20 -80 18 -125 -5z"/>
<path d="M8975 4323 c-49 -26 -64 -44 -79 -94 -21 -71 -33 -90 -83 -135 -27
-24 -43 -46 -39 -53 11 -18 93 -13 134 8 107 54 169 181 130 266 -13 29 -22
30 -63 8z"/>
<path d="M5374 3016 c-3 -8 -4 -27 -2 -43 3 -28 4 -28 78 -31 109 -4 122 0
118 46 l-3 37 -93 3 c-73 2 -93 0 -98 -12z"/>
<path d="M5634 3004 c-13 -50 4 -59 102 -59 l89 0 0 40 0 40 -92 3 -92 3 -7
-27z"/>
<path d="M2440 7179 c-55 -25 -105 -71 -133 -124 -21 -39 -22 -51 -22 -375 0
-324 1 -336 22 -375 28 -53 78 -99 133 -124 39 -18 66 -21 212 -21 l166 0 53
-92 c62 -111 91 -144 144 -169 75 -35 169 -15 226 47 14 16 50 71 78 122 l53
92 166 0 c146 0 173 3 212 21 55 25 105 71 133 124 21 39 22 51 22 375 0 324
-1 336 -22 375 -28 53 -78 99 -133 124 -44 20 -63 21 -655 21 -592 0 -611 -1
-655 -21z m1161 -120 c30 -15 46 -32 61 -67 18 -40 20 -60 15 -161 -6 -141
-31 -226 -90 -313 -52 -77 -124 -128 -263 -186 -122 -52 -151 -80 -228 -216
l-55 -99 -23 39 c-13 21 -46 79 -74 129 l-51 90 -199 5 c-210 5 -226 9 -263
56 -20 26 -21 38 -21 343 0 356 -2 348 74 382 38 17 75 19 559 19 504 0 519
-1 558 -21z"/>
<path d="M3148 6973 c6 -2 18 -2 25 0 6 3 1 5 -13 5 -14 0 -19 -2 -12 -5z"/>
<path d="M2885 6880 c-3 -6 1 -7 9 -4 18 7 21 14 7 14 -6 0 -13 -4 -16 -10z"/>
<path d="M3081 6844 c0 -11 3 -14 6 -6 3 7 2 16 -1 19 -3 4 -6 -2 -5 -13z"/>
<path d="M2971 6834 c0 -11 3 -14 6 -6 3 7 2 16 -1 19 -3 4 -6 -2 -5 -13z"/>
<path d="M3071 6804 c0 -11 3 -14 6 -6 3 7 2 16 -1 19 -3 4 -6 -2 -5 -13z"/>
<path d="M3061 6764 c0 -11 3 -14 6 -6 3 7 2 16 -1 19 -3 4 -6 -2 -5 -13z"/>
<path d="M3051 6724 c0 -11 3 -14 6 -6 3 7 2 16 -1 19 -3 4 -6 -2 -5 -13z"/>
<path d="M3145 6690 c-4 -17 -5 -34 -2 -36 2 -3 7 10 11 27 8 42 0 50 -9 9z"/>
<path d="M3472 6690 c0 -14 2 -19 5 -12 2 6 2 18 0 25 -3 6 -5 1 -5 -13z"/>
<path d="M3041 6684 c0 -11 3 -14 6 -6 3 7 2 16 -1 19 -3 4 -6 -2 -5 -13z"/>
<path d="M3026 6634 c-4 -14 -5 -28 -3 -31 3 -2 8 8 11 23 4 14 5 28 3 31 -3
2 -8 -8 -11 -23z"/>
<path d="M3131 6624 c0 -11 3 -14 6 -6 3 7 2 16 -1 19 -3 4 -6 -2 -5 -13z"/>
<path d="M3116 6574 c-4 -14 -5 -28 -3 -31 3 -2 8 8 11 23 4 14 5 28 3 31 -3
2 -8 -8 -11 -23z"/>
<path d="M3011 6574 c0 -11 3 -14 6 -6 3 7 2 16 -1 19 -3 4 -6 -2 -5 -13z"/>
<path d="M2980 6534 c0 -10 5 -26 10 -34 8 -11 9 -7 4 15 -8 37 -14 45 -14 19z"/>
<path d="M3001 6534 c0 -11 3 -14 6 -6 3 7 2 16 -1 19 -3 4 -6 -2 -5 -13z"/>
<path d="M3101 6514 c0 -11 3 -14 6 -6 3 7 2 16 -1 19 -3 4 -6 -2 -5 -13z"/>
<path d="M2908 6478 c6 -6 18 -8 28 -6 14 3 12 5 -9 10 -19 3 -25 2 -19 -4z"/>
<path d="M3091 6474 c0 -11 3 -14 6 -6 3 7 2 16 -1 19 -3 4 -6 -2 -5 -13z"/>
<path d="M3260 6480 c-23 -7 -23 -8 -3 -9 12 -1 25 4 28 9 3 6 5 10 3 9 -2 -1
-14 -5 -28 -9z"/>
<path d="M2982 6445 c0 -16 2 -22 5 -12 2 9 2 23 0 30 -3 6 -5 -1 -5 -18z"/>
<path d="M3081 6434 c0 -11 3 -14 6 -6 3 7 2 16 -1 19 -3 4 -6 -2 -5 -13z"/>
<path d="M3023 6393 c9 -2 23 -2 30 0 6 3 -1 5 -18 5 -16 0 -22 -2 -12 -5z"/>
<path d="M685 1709 c-39 -22 -45 -40 -45 -136 0 -79 3 -96 20 -113 25 -25 53
-32 121 -28 45 2 54 6 57 23 3 18 -2 20 -58 17 -84 -5 -90 2 -90 103 0 102 6
109 90 103 57 -4 61 -3 58 16 -3 19 -11 21 -68 23 -36 2 -74 -2 -85 -8z"/>
<path d="M1195 1709 c-39 -22 -45 -40 -45 -136 0 -79 3 -96 20 -113 26 -26 60
-34 122 -28 40 4 57 12 75 32 20 24 23 38 23 111 0 74 -3 87 -24 111 -20 24
-32 28 -87 31 -36 2 -73 -1 -84 -8z m135 -48 c5 -11 10 -50 10 -86 0 -91 -9
-105 -68 -105 -27 0 -53 5 -60 12 -16 16 -16 170 0 186 7 7 33 12 60 12 37 0
50 -4 58 -19z"/>
<path d="M1700 1575 c0 -138 1 -145 20 -145 19 0 20 7 20 101 0 69 3 98 11 94
6 -4 38 -49 71 -101 53 -83 63 -94 89 -94 l29 0 0 145 0 145 -25 0 c-24 0 -24
-1 -27 -102 l-3 -101 -65 101 c-57 89 -68 102 -92 102 l-28 0 0 -145z"/>
<path d="M2250 1706 c0 -14 29 -26 68 -26 22 0 22 -2 22 -125 l0 -125 30 0 30
0 0 124 0 125 42 3 c31 2 44 8 46 21 3 15 -8 17 -117 17 -96 0 -121 -3 -121
-14z"/>
<path d="M2823 1582 c-29 -76 -53 -141 -53 -145 0 -4 11 -7 23 -7 19 0 28 9
40 40 15 40 15 40 71 40 l55 0 12 -40 c11 -34 16 -40 41 -40 15 0 28 1 28 3 0
1 -24 65 -53 142 -50 134 -54 140 -82 143 -30 3 -30 2 -82 -136z m111 -10 c7
-20 4 -22 -28 -22 -41 0 -44 9 -20 66 l16 38 13 -30 c7 -17 16 -40 19 -52z"/>
<path d="M3385 1709 c-39 -22 -45 -40 -45 -136 0 -79 3 -96 20 -113 25 -25 53
-32 121 -28 45 2 54 6 57 23 3 18 -2 20 -58 17 -84 -5 -90 2 -90 103 0 102 6
109 90 103 57 -4 61 -3 58 16 -3 19 -11 21 -68 23 -36 2 -74 -2 -85 -8z"/>
<path d="M3820 1706 c0 -14 29 -26 68 -26 22 0 22 -2 22 -125 l0 -125 30 0 30
0 0 124 0 125 42 3 c31 2 44 8 46 21 3 15 -8 17 -117 17 -96 0 -121 -3 -121
-14z"/>
<path d="M4783 1582 c-29 -76 -53 -141 -53 -145 0 -4 11 -7 25 -7 20 0 26 7
36 40 l12 40 58 0 58 0 12 -40 c11 -34 16 -40 41 -40 15 0 28 1 28 3 0 1 -24
65 -53 142 -50 134 -54 140 -82 143 -30 3 -30 2 -82 -136z m111 -10 c7 -20 4
-22 -28 -22 -41 0 -44 11 -20 68 l15 37 13 -31 c8 -17 17 -40 20 -52z"/>
<path d="M5300 1575 c0 -138 1 -145 20 -145 19 0 20 7 20 108 l0 107 19 -40
c9 -22 28 -71 42 -108 21 -60 27 -67 48 -65 21 3 29 17 60 103 l36 100 3 -102
c3 -102 3 -103 27 -103 l25 0 0 146 0 145 -37 -3 -36 -3 -34 -99 c-18 -55 -36
-103 -40 -107 -5 -5 -25 41 -46 102 l-39 109 -34 0 -34 0 0 -145z"/>
<path d="M5964 1706 c-17 -8 -34 -21 -38 -31 -10 -26 -7 -184 4 -205 13 -24
62 -40 124 -40 95 0 96 1 96 91 l0 79 -55 0 c-43 0 -55 -3 -55 -15 0 -9 12
-18 30 -21 28 -6 30 -10 30 -50 l0 -44 -46 0 c-77 0 -84 8 -84 104 0 60 4 87
14 95 9 8 43 11 88 10 66 -2 73 -1 73 17 0 17 -9 19 -75 21 -47 2 -87 -3 -106
-11z"/>
<path d="M6480 1575 l0 -145 95 0 c88 0 95 1 95 20 0 18 -7 20 -70 20 l-70 0
0 45 0 45 66 0 c57 0 65 2 62 18 -3 14 -16 18 -66 20 l-62 3 0 39 0 39 67 3
c55 2 68 6 71 21 3 15 -6 17 -92 17 l-96 0 0 -145z"/>
<path d="M7000 1575 l0 -145 95 0 c88 0 95 1 95 20 0 18 -7 20 -70 20 l-70 0
0 45 0 45 66 0 c57 0 65 2 62 18 -3 14 -16 18 -66 20 l-62 3 0 39 0 39 67 3
c55 2 68 6 71 21 3 15 -6 17 -92 17 l-96 0 0 -145z"/>
<path d="M7520 1575 l0 -145 25 0 c24 0 25 2 25 68 l1 67 26 -30 c90 -103 93
-106 126 -103 l31 3 -67 74 -66 74 59 66 59 66 -28 3 c-23 3 -38 -7 -84 -55
l-57 -58 0 58 c0 54 -1 57 -25 57 l-25 0 0 -145z"/>
<path d="M8010 1706 c0 -17 31 -26 93 -26 26 0 47 -3 47 -6 0 -3 -31 -51 -70
-107 -38 -55 -70 -109 -70 -119 0 -16 11 -18 111 -18 100 0 110 2 107 18 -3
14 -17 18 -76 22 l-73 5 77 112 c42 61 73 116 70 122 -5 7 -47 11 -112 11 -82
0 -104 -3 -104 -14z"/>
<path d="M8952 1704 c-18 -12 -22 -25 -22 -63 0 -60 12 -71 83 -78 49 -5 56
-9 60 -30 2 -14 2 -34 -1 -45 -4 -18 -11 -20 -74 -16 -65 3 -69 2 -66 -17 3
-18 10 -20 80 -20 96 0 113 13 113 85 0 27 -6 55 -13 62 -7 7 -39 15 -70 18
l-57 5 0 35 0 35 63 3 c54 3 62 6 62 22 0 18 -7 20 -68 20 -45 0 -75 -5 -90
-16z"/>
<path d="M9440 1575 l0 -145 25 0 25 0 0 145 0 145 -25 0 -25 0 0 -145z"/>
<path d="M9790 1706 c0 -14 29 -26 68 -26 22 0 22 -2 22 -125 l0 -125 30 0 30
0 0 124 0 125 42 3 c31 2 44 8 46 21 3 15 -8 17 -117 17 -96 0 -121 -3 -121
-14z"/>
<path d="M10340 1575 l0 -145 95 0 c88 0 95 1 95 20 0 18 -7 20 -70 20 l-70 0
0 45 0 45 66 0 c57 0 65 2 62 18 -3 14 -16 18 -66 20 l-62 3 0 39 0 39 67 3
c55 2 68 6 71 21 3 15 -6 17 -92 17 l-96 0 0 -145z"/>
<path d="M4360 1460 c0 -27 3 -30 30 -30 27 0 30 3 30 30 0 27 -3 30 -30 30
-27 0 -30 -3 -30 -30z"/>
<path d="M8540 1460 c0 -27 3 -30 30 -30 27 0 30 3 30 30 0 27 -3 30 -30 30
-27 0 -30 -3 -30 -30z"/>
</g>
</svg>
