<?xml version="1.0" standalone="no"?>
<!DOCTYPE svg PUBLIC "-//W3C//DTD SVG 20010904//EN"
 "http://www.w3.org/TR/2001/REC-SVG-20010904/DTD/svg10.dtd">
<svg version="1.0" xmlns="http://www.w3.org/2000/svg"
 width="1280.000000pt" height="1280.000000pt" viewBox="0 0 1280.000000 1280.000000"
 preserveAspectRatio="xMidYMid meet">

<g transform="translate(0.000000,1280.000000) scale(0.100000,-0.100000)"
fill="#000000" stroke="none">
<path d="M9675 10541 c-74 -18 -162 -87 -198 -155 -22 -41 -22 -41 -25 -830
l-2 -788 34 -62 c59 -105 136 -168 261 -216 l25 -10 0 -162 c0 -187 8 -224 56
-278 70 -78 200 -94 284 -35 23 16 132 127 242 247 l201 218 66 1 c36 0 316 4
621 8 628 8 599 4 695 92 91 84 88 69 98 532 5 238 5 580 0 825 -8 397 -10
419 -30 457 -26 49 -96 116 -152 144 -40 21 -47 21 -1093 20 -579 -1 -1066 -4
-1083 -8z m2083 -100 c46 -7 60 -14 105 -59 46 -46 52 -57 58 -109 12 -92 10
-1471 -2 -1522 -12 -55 -40 -94 -92 -132 l-40 -29 -638 0 -638 0 -174 -187
c-327 -351 -309 -337 -388 -314 -65 19 -71 44 -78 278 -3 111 -8 203 -11 206
-3 2 -37 14 -76 25 -140 42 -208 122 -224 263 -12 102 -12 1272 -1 1382 7 65
14 85 38 114 42 52 72 72 123 82 55 11 1964 13 2038 2z"/>
<path d="M9791 10233 c-17 -21 -33 -51 -36 -68 -10 -62 11 -1279 23 -1308 25
-59 1 -58 966 -64 l881 -6 48 43 48 42 -3 669 -3 668 -22 22 c-33 33 -156 38
-1065 38 l-807 1 -30 -37z m1842 -52 c24 -19 24 -118 0 -123 -9 -2 -421 -2
-915 0 l-898 2 0 48 c0 76 8 81 135 85 61 2 459 3 886 3 642 -1 779 -3 792
-15z m-1785 -751 c0 -217 -4 -422 -8 -455 -4 -33 -7 176 -7 465 0 289 3 494 7
455 4 -38 8 -248 8 -465z m826 434 c9 -3 16 -12 16 -19 0 -9 -29 -15 -102 -20
-130 -8 -609 -3 -625 8 -7 4 -10 14 -6 22 4 13 56 15 353 15 192 0 355 -3 364
-6z m546 -194 c0 -6 -115 -10 -325 -10 -210 0 -325 4 -325 10 0 6 115 10 325
10 210 0 325 -4 325 -10z m-395 -142 c4 -4 5 -14 2 -23 -6 -13 -57 -15 -427
-15 -376 0 -421 2 -427 16 -3 9 0 20 8 25 16 11 834 8 844 -3z m415 -3 c24
-29 0 -35 -143 -35 -150 0 -180 7 -158 34 19 23 282 24 301 1z m-47 -321 c270
-14 42 -34 -384 -34 -141 0 -264 3 -273 6 -25 10 -18 32 12 37 32 6 475 -1
645 -9z m-838 -14 c48 -10 -149 -19 -266 -12 -73 4 -95 8 -74 13 37 9 299 8
340 -1z"/>
<path d="M9965 10141 c-9 -16 3 -31 26 -31 14 0 19 6 17 17 -4 20 -33 29 -43
14z"/>
<path d="M10070 10130 c0 -16 5 -21 23 -18 12 2 22 10 22 18 0 8 -10 16 -22
18 -18 3 -23 -2 -23 -18z"/>
<path d="M10175 10140 c-9 -15 14 -40 31 -33 22 8 18 43 -5 43 -11 0 -23 -5
-26 -10z"/>
<path d="M6340 10479 c-603 -46 -1105 -356 -1349 -833 -86 -169 -122 -326
-122 -541 -1 -273 62 -476 219 -711 73 -108 236 -291 320 -358 l62 -49 0 -62
0 -62 -57 -7 c-157 -18 -263 -148 -263 -322 0 -124 45 -230 139 -327 58 -60
97 -85 169 -106 l57 -17 60 -140 c106 -243 195 -381 351 -544 142 -147 317
-263 514 -339 78 -30 267 -74 380 -88 68 -8 75 -14 94 -80 9 -27 -3 -33 -314
-168 -327 -141 -406 -184 -496 -267 -142 -134 -142 -133 -449 -783 -67 -143
-147 -312 -178 -377 -31 -66 -64 -121 -75 -127 -12 -6 -73 -11 -141 -11 -105
0 -120 2 -125 18 -3 9 -105 384 -226 832 -392 1443 -347 1295 -409 1353 -26
25 -61 51 -77 60 -46 23 -566 29 -1932 21 l-1223 -7 -44 -29 c-54 -36 -102
-98 -117 -153 -24 -87 -32 -51 237 -1045 298 -1103 438 -1603 468 -1670 19
-45 58 -85 105 -109 48 -25 75 -55 95 -109 10 -23 17 -45 17 -47 0 -3 -186 -5
-412 -6 -227 0 -437 -4 -466 -8 -139 -20 -240 -179 -202 -316 16 -56 85 -137
144 -167 l41 -22 5233 2 c4729 2 5235 3 5263 17 43 23 108 83 126 119 20 38
25 148 11 206 -8 29 -26 58 -55 88 -69 69 -92 75 -300 80 l-183 4 0 26 c0 35
-35 87 -74 112 -33 20 -34 23 -41 100 -4 44 -4 116 0 160 7 77 8 80 41 99 38
23 74 75 74 108 0 13 -7 41 -16 63 -28 70 -46 74 -308 78 l-229 4 6 101 c6 99
98 1098 117 1265 5 45 12 87 15 92 3 6 19 10 36 10 16 0 38 9 50 21 18 18 21
29 16 71 -10 82 -55 146 -135 190 -22 11 -35 29 -43 59 -20 65 -64 105 -124
113 -151 18 -887 47 -943 37 -72 -14 -122 -78 -122 -155 0 -31 -5 -38 -37 -55
-81 -41 -133 -122 -133 -204 0 -52 22 -77 69 -77 17 0 33 -6 36 -12 4 -14 45
-448 100 -1058 27 -299 32 -386 22 -392 -6 -4 -59 -8 -117 -9 -259 -2 -338
-23 -443 -119 -159 -145 -181 -394 -51 -572 l35 -47 -33 -6 c-18 -3 -150 -5
-293 -3 l-260 3 0 145 0 145 62 16 c167 45 301 173 360 342 26 72 26 73 19
307 -14 485 -39 860 -63 935 -43 137 -143 271 -268 360 -33 23 -211 129 -395
235 -184 105 -340 198 -346 206 -7 9 -12 75 -13 175 l-2 160 67 72 c138 148
215 272 299 477 51 123 61 141 84 146 277 60 385 132 469 311 25 53 27 68 27
178 0 108 -3 125 -26 176 -14 30 -47 79 -73 107 -25 29 -46 58 -46 65 0 7 21
44 46 82 103 159 190 374 235 585 21 94 23 133 23 375 0 260 -1 273 -26 366
-68 248 -154 383 -323 505 l-29 21 37 44 c81 94 82 205 3 284 -64 63 -151 81
-252 50 -27 -8 -52 -15 -55 -15 -3 0 -9 24 -13 53 -18 152 -78 220 -192 219
-63 0 -99 -18 -148 -73 -43 -47 -71 -104 -81 -166 -4 -24 -12 -43 -17 -43 -6
0 -84 33 -172 74 -304 140 -508 208 -775 257 -86 16 -370 42 -406 37 -5 0 -57
-4 -115 -9z m315 -139 c127 -10 332 -43 344 -56 3 -4 -14 -4 -38 0 -96 15
-363 26 -471 21 -310 -17 -618 -115 -855 -274 l-70 -47 -13 -79 c-7 -43 -25
-103 -40 -134 -52 -107 -173 -201 -257 -201 -49 0 -75 -31 -118 -138 -80 -202
-105 -416 -72 -617 18 -109 18 -117 0 -84 -53 97 -81 366 -56 537 22 150 89
316 189 466 67 101 239 270 351 344 314 210 674 295 1106 262z m1434 -87 c20
-24 20 -28 6 -47 -65 -88 -65 -91 -92 -220 -4 -21 -17 -45 -28 -52 -20 -13
-20 -11 -19 99 1 132 13 175 60 217 42 37 47 37 73 3z m380 -247 c14 -17 8
-21 -39 -31 -19 -4 -83 -30 -142 -57 -59 -27 -118 -48 -130 -46 -24 3 -38 28
-15 28 7 0 40 18 72 41 95 67 124 79 186 79 37 0 61 -5 68 -14z m-634 -1498
c2 -7 9 -67 15 -133 19 -207 64 -415 110 -505 10 -20 36 -60 59 -90 29 -38 37
-56 28 -61 -20 -11 -362 -53 -379 -47 -8 4 -19 23 -23 44 -11 59 -40 108 -90
152 -68 60 -107 66 -364 58 -336 -11 -390 -23 -464 -105 -38 -42 -57 -93 -57
-153 l0 -38 -95 0 c-85 0 -95 2 -95 18 0 69 -71 177 -140 212 -66 33 -589 52
-692 25 -24 -6 -29 -4 -39 21 -12 32 -9 447 3 460 4 4 43 -7 85 -24 180 -71
333 -94 603 -93 417 1 830 73 1385 240 111 33 144 37 150 19z m-396 -678 c47
-13 99 -66 111 -111 7 -25 7 -123 1 -289 -9 -232 -12 -255 -33 -298 -17 -36
-34 -52 -69 -70 -41 -20 -69 -23 -259 -32 -118 -6 -230 -7 -248 -4 -48 9 -117
78 -130 129 -6 22 -22 150 -36 284 -25 243 -25 244 -5 282 43 85 79 98 294
109 232 11 337 11 374 0z m-1323 -30 c151 -9 194 -21 234 -65 22 -23 25 -37
28 -114 4 -89 -21 -387 -40 -476 -13 -64 -33 -98 -72 -121 -28 -17 -52 -19
-261 -18 -251 2 -303 9 -329 50 -45 67 -83 357 -74 564 4 112 18 141 79 172
40 21 198 24 435 8z m-646 -315 l0 -256 -30 16 c-45 23 -97 83 -127 144 -35
75 -43 185 -18 241 24 53 102 105 163 109 9 1 12 -56 12 -254z m3076 191 c114
-118 106 -273 -22 -415 -47 -52 -161 -112 -217 -115 l-32 -1 0 266 c0 211 3
269 14 283 19 22 65 34 140 35 l65 1 52 -54z m-500 -82 c-14 -35 -328 -474
-358 -499 -32 -27 -77 -49 -85 -41 -2 2 3 25 11 50 10 29 19 117 26 248 6 111
14 206 18 210 9 9 282 45 351 47 36 1 42 -2 37 -15z m-1417 -65 c17 -6 36 -19
41 -30 6 -10 17 -87 25 -171 18 -177 33 -239 73 -294 36 -50 121 -93 198 -101
78 -8 49 -18 -100 -33 -157 -17 -570 -10 -588 9 -10 10 -10 15 -1 18 34 13 82
54 110 96 38 56 48 101 68 311 9 88 21 166 28 174 25 31 90 40 146 21z m1486
-373 c-36 -179 -158 -477 -198 -484 -29 -6 -84 44 -112 103 -20 40 -29 78 -35
147 l-7 92 181 255 181 255 3 -145 c2 -102 -2 -167 -13 -223z m-451 -218 c3
-13 10 -57 16 -98 6 -41 20 -94 31 -117 19 -39 92 -115 135 -139 17 -10 11
-20 -81 -114 -158 -161 -346 -272 -552 -326 -134 -34 -339 -43 -473 -20 -361
63 -696 276 -881 561 -75 115 -129 210 -129 226 0 17 70 5 195 -31 219 -64
317 -75 655 -75 391 1 608 29 925 119 145 42 153 42 159 14z m-3594 -627 c0
-5 -5 -22 -11 -38 -6 -15 -10 -57 -10 -93 0 -70 9 -107 180 -745 56 -209 117
-441 137 -515 32 -121 358 -1322 370 -1361 4 -14 -10 -17 -93 -22 -54 -4 -673
-8 -1375 -9 l-1278 -3 -30 28 c-22 21 -39 57 -65 139 -63 193 -658 2388 -670
2471 -6 38 -3 52 15 82 27 44 51 57 115 66 82 10 2715 10 2715 0z m297 -18
c41 -19 51 -40 100 -203 37 -125 515 -1878 643 -2356 l22 -82 -21 -40 c-60
-119 -200 -103 -246 28 -20 55 -577 2109 -635 2340 -23 91 -42 183 -43 206 -2
49 23 90 66 109 43 19 72 18 114 -2z m3291 -225 c-4 -126 -19 -167 -80 -225
-61 -59 -119 -78 -243 -78 -104 0 -113 2 -164 30 -37 20 -69 49 -98 89 -38 51
-53 86 -38 86 3 0 59 11 125 26 149 31 265 71 390 135 52 26 99 48 104 48 4 1
6 -50 4 -111z m2662 -209 c107 -6 218 -14 245 -19 l50 -8 -70 -1 c-38 0 -200
6 -360 14 -159 8 -332 15 -383 15 l-92 0 -17 -35 c-9 -20 -22 -34 -27 -32 -19
6 -18 54 1 72 16 17 35 18 238 11 121 -3 308 -11 415 -17z m-3264 -150 c101
-69 122 -74 315 -74 l176 0 204 -119 c514 -301 547 -326 609 -457 42 -90 62
-290 77 -744 6 -190 5 -202 -15 -241 -25 -49 -72 -98 -114 -120 -17 -9 -91
-21 -186 -29 -143 -13 -805 -62 -912 -68 l-45 -2 -3 101 -3 101 47 7 c26 3 86
6 133 6 102 0 550 27 601 36 63 12 108 42 131 86 20 39 21 53 16 168 -5 110
-27 302 -43 383 -4 17 -10 25 -15 20 -13 -13 -26 -93 -49 -300 -23 -201 -27
-213 -79 -213 -36 0 -629 -38 -774 -50 l-118 -9 -254 64 c-139 35 -276 67
-304 71 l-51 7 0 41 c0 22 9 127 20 231 22 216 24 243 11 230 -8 -9 -55 -147
-145 -430 -19 -60 -40 -113 -48 -117 -7 -4 -70 -34 -141 -67 -195 -91 -271
-174 -341 -369 -14 -40 -26 -86 -26 -103 l0 -29 -229 0 c-148 0 -232 4 -236
10 -13 21 -85 284 -79 289 3 3 69 8 147 11 78 3 148 9 156 14 11 7 130 243
236 471 80 171 110 234 218 458 64 131 133 261 153 289 21 27 71 79 111 113
60 52 104 77 241 139 286 129 516 226 540 226 13 0 43 -14 68 -31z m3698 -46
c33 -18 -91 -23 -623 -23 -440 -1 -522 -3 -556 -16 -91 -35 -105 -29 -58 27
l27 32 596 -5 c372 -3 603 -9 614 -15z m-54 -235 c0 -35 -5 -80 -11 -100 l-10
-38 -530 0 -529 0 -9 23 c-4 12 -11 57 -14 100 l-7 77 555 0 555 0 0 -62z
m-207 -227 c26 -26 -70 -386 -157 -587 -31 -70 -57 -128 -58 -129 -2 -1 -136
-5 -299 -7 l-296 -5 -7 61 c-14 138 -56 623 -56 655 l0 34 431 -6 c293 -3 435
-9 442 -16z m167 -142 c-22 -278 -53 -565 -62 -574 -13 -13 -4 165 22 450 23
246 29 284 41 263 4 -8 4 -71 -1 -139z m-54 -701 c-3 -24 -10 -97 -16 -163 -6
-66 -13 -128 -16 -137 -5 -17 -34 -18 -429 -18 l-423 0 -6 53 c-10 83 -25 249
-26 280 l0 27 461 0 461 0 -6 -42z m-3859 -238 c130 -34 238 -62 240 -63 6 -7
4 -337 -3 -348 -12 -19 -167 -4 -259 25 -99 32 -147 32 -227 4 -60 -22 -78
-23 -335 -23 -327 0 -317 -3 -280 96 37 98 72 161 109 195 37 36 183 112 298
156 102 39 160 34 457 -42z m4323 -209 c33 -10 -678 -21 -1297 -21 l-492 0
-53 -31 c-167 -97 -211 -217 -162 -444 6 -30 6 -30 -10 -8 -35 47 -49 98 -49
178 0 67 5 91 28 143 40 88 124 162 210 183 39 9 1792 9 1825 0z m-46 -198 c3
-21 6 -93 6 -160 l0 -123 -620 0 -620 0 0 75 0 75 38 0 c63 0 447 22 451 26 2
2 2 6 0 8 -8 8 -701 28 -745 21 -67 -10 -74 -22 -74 -127 l0 -91 -74 5 c-117
8 -175 53 -184 147 -8 83 41 161 109 174 13 2 403 5 865 6 l841 1 7 -37z
m-4172 -168 c82 -60 75 -200 -10 -241 -34 -16 -91 -18 -607 -22 -313 -2 -657
0 -762 5 -183 9 -194 11 -218 33 -54 51 -57 145 -5 203 23 26 38 33 87 38 32
4 380 6 773 5 698 -1 716 -1 742 -21z m2858 -85 c0 -110 -2 -114 -58 -80 l-34
21 -44 -26 -44 -26 0 100 c0 115 -6 108 108 110 l72 1 0 -100z m-4627 -117 c9
-31 14 -59 11 -62 -9 -9 -2773 -7 -2837 2 -43 6 -67 16 -93 39 -31 28 -44 56
-26 59 64 12 464 16 1583 17 l1346 2 16 -57z m4355 -8 c6 -3 12 -9 12 -15 0
-6 -27 -10 -64 -10 -63 0 -126 15 -126 30 0 8 150 3 178 -5z m1645 -2 c20 -3
37 -9 37 -14 0 -5 -283 -9 -665 -9 -404 0 -665 4 -665 9 0 5 10 12 23 14 31 6
1224 6 1270 0z m513 -215 c43 -34 53 -50 54 -86 0 -55 -25 -101 -67 -120 -36
-16 -348 -17 -5223 -17 -4341 0 -5190 2 -5217 14 -47 19 -78 86 -64 139 18 66
38 76 159 83 59 3 2407 6 5218 7 l5111 2 29 -22z"/>
<path d="M7074 8161 c-49 -22 -114 -78 -114 -98 0 -12 10 -13 58 -6 117 17
240 9 330 -21 46 -16 86 -26 89 -23 8 8 -30 67 -64 99 -70 66 -210 90 -299 49z"/>
<path d="M5897 8146 c-21 -8 -55 -26 -77 -41 -40 -28 -97 -101 -87 -111 3 -3
36 5 74 17 62 22 83 24 251 23 100 -1 182 2 182 6 0 15 -65 63 -115 86 -65 30
-176 40 -228 20z"/>
<path d="M7070 7694 c-90 -39 -140 -127 -148 -256 -5 -99 8 -147 58 -217 72
-99 203 -108 287 -20 55 58 78 122 78 219 0 130 -49 226 -138 269 -51 25 -89
26 -137 5z m50 -129 c18 -22 24 -91 10 -125 -18 -43 -45 -56 -76 -35 -68 44
-48 175 26 175 15 0 33 -7 40 -15z"/>
<path d="M5984 7695 c-40 -18 -101 -86 -125 -140 -56 -127 -17 -302 85 -380
66 -50 158 -46 224 10 121 104 131 323 22 448 -64 73 -134 94 -206 62z m175
-152 c23 -50 4 -132 -35 -147 -61 -24 -108 79 -69 154 24 47 81 43 104 -7z"/>
<path d="M2767 5030 c-33 -26 -51 -80 -50 -156 2 -222 192 -433 308 -342 61
48 72 154 30 285 -57 178 -199 283 -288 213z"/>
<path d="M10113 5039 c-86 -42 -156 -148 -157 -236 -1 -67 20 -94 56 -71 48
31 99 95 118 146 33 87 48 111 91 137 22 14 37 30 34 35 -11 18 -98 11 -142
-11z"/>
<path d="M10243 4961 c-33 -24 -46 -44 -68 -102 -20 -52 -44 -89 -82 -131 -30
-33 -52 -65 -50 -71 7 -20 107 -13 152 11 89 45 155 141 155 225 0 100 -33
121 -107 68z"/>
<path d="M6132 3478 c-7 -7 -12 -24 -12 -38 0 -43 17 -50 115 -50 101 0 115 7
115 56 0 27 -4 32 -31 38 -54 11 -174 7 -187 -6z"/>
<path d="M6424 3466 c-15 -62 5 -73 134 -75 l82 -1 0 44 c0 54 -4 56 -121 56
-85 0 -89 -1 -95 -24z"/>
<path d="M2824 8281 c-96 -12 -181 -72 -231 -164 -16 -29 -18 -68 -18 -427 l0
-395 27 -46 c33 -57 87 -105 147 -133 41 -18 69 -21 241 -24 l195 -4 63 -108
c39 -67 80 -124 107 -148 78 -69 173 -78 261 -27 49 29 72 58 147 186 l57 97
197 4 c190 4 200 5 248 30 58 30 130 103 151 153 11 28 14 107 14 407 0 223
-4 388 -10 410 -14 49 -91 133 -154 166 l-51 27 -665 1 c-366 1 -693 -1 -726
-5z m1205 -141 c65 -12 95 -34 122 -88 20 -40 21 -55 17 -185 -4 -118 -10
-154 -31 -214 -61 -177 -126 -243 -340 -347 -179 -88 -210 -116 -290 -258 -27
-47 -54 -93 -60 -102 -10 -13 -24 6 -91 125 -49 87 -87 144 -100 149 -12 4
-113 9 -226 12 -229 5 -260 13 -295 71 -19 30 -20 52 -20 382 0 384 2 403 58
432 17 8 51 19 76 23 69 11 1119 12 1180 0z"/>
<path d="M3260 7920 c0 -5 7 -7 15 -4 8 4 15 8 15 10 0 2 -7 4 -15 4 -8 0 -15
-4 -15 -10z"/>
<path d="M3562 7695 c0 -16 2 -22 5 -12 2 9 2 23 0 30 -3 6 -5 -1 -5 -18z"/>
<path d="M3427 7653 c-4 -3 -7 -16 -6 -27 0 -19 1 -19 10 3 10 24 8 36 -4 24z"/>
<path d="M3531 7583 c-1 -6 -4 -20 -7 -30 -5 -17 -5 -17 6 0 6 10 9 23 6 30
-3 9 -5 9 -5 0z"/>
<path d="M3371 7520 c0 -8 4 -22 9 -30 12 -18 12 -2 0 25 -6 13 -9 15 -9 5z"/>
<path d="M3695 7460 c-16 -7 -17 -9 -3 -9 9 -1 20 4 23 9 7 11 7 11 -20 0z"/>
<path d="M3298 7453 c7 -3 16 -2 19 1 4 3 -2 6 -13 5 -11 0 -14 -3 -6 -6z"/>
<path d="M3371 7424 c0 -11 3 -14 6 -6 3 7 2 16 -1 19 -3 4 -6 -2 -5 -13z"/>
<path d="M3428 7363 c7 -3 16 -2 19 1 4 3 -2 6 -13 5 -11 0 -14 -3 -6 -6z"/>
<path d="M992 2465 c-18 -8 -37 -26 -42 -40 -13 -35 -14 -1154 0 -1189 5 -14
23 -32 39 -41 27 -14 563 -15 5380 -13 l5349 3 26 24 26 24 0 597 0 597 -26
24 -26 24 -5346 2 c-4596 2 -5352 0 -5380 -12z m8902 -327 c21 -30 20 -54 -4
-78 -58 -58 -148 21 -93 82 23 26 78 24 97 -4z m-1654 -170 l1 -163 42 50
c110 130 104 126 179 123 l67 -3 -80 -93 c-46 -53 -79 -99 -76 -107 3 -7 42
-65 86 -129 l80 -116 -75 0 c-70 0 -75 1 -92 28 -9 15 -37 56 -60 90 -40 59
-45 62 -58 45 -8 -11 -13 -45 -14 -90 l0 -73 -65 0 -65 0 0 300 0 300 65 0 65
0 0 -162z m-4582 65 l3 -53 40 0 39 0 0 -45 0 -45 -40 0 -40 0 0 -123 c0 -130
5 -147 47 -147 18 0 24 -8 33 -41 6 -23 10 -43 7 -45 -12 -12 -97 -14 -131 -2
-70 24 -80 49 -84 214 l-4 144 -29 0 c-28 0 -29 2 -29 45 0 43 1 45 30 45 29
0 30 1 30 48 0 27 3 52 7 56 4 4 32 6 63 4 l55 -3 3 -52z m1290 0 l3 -53 40 0
39 0 0 -45 0 -45 -40 0 -40 0 0 -123 c0 -130 5 -147 46 -147 22 0 26 -5 38
-62 6 -25 3 -28 -29 -34 -43 -8 -102 2 -133 23 -41 26 -52 71 -52 213 l0 130
-30 0 c-29 0 -30 2 -30 45 0 43 1 45 30 45 30 0 30 1 30 55 l0 56 63 -3 62 -3
3 -52z m5212 2 l0 -55 40 0 40 0 0 -45 0 -45 -40 0 -40 0 0 -123 c0 -133 5
-147 51 -147 23 0 27 -5 33 -41 4 -23 4 -44 0 -48 -3 -3 -33 -6 -67 -6 -64 1
-107 19 -123 53 -5 9 -11 82 -14 162 l-5 145 -32 3 c-32 3 -33 5 -33 48 0 44
0 44 35 44 l35 0 0 55 0 55 60 0 60 0 0 -55z m-7837 -88 c38 -29 59 -62 71
-109 l6 -28 -58 0 c-53 0 -60 3 -70 24 -40 89 -152 58 -168 -46 -15 -88 30
-168 92 -168 34 0 84 35 84 60 0 6 25 10 61 10 67 0 67 0 32 -78 -51 -109
-248 -123 -340 -24 -37 41 -54 90 -54 162 0 102 40 177 115 212 31 14 59 18
117 16 65 -3 81 -7 112 -31z m488 -2 c61 -43 88 -102 89 -191 0 -134 -70 -218
-193 -231 -63 -6 -117 8 -166 45 -97 72 -102 274 -9 358 48 44 79 54 160 52
66 -3 82 -7 119 -33z m299 -10 l5 -39 12 26 c19 41 66 61 134 56 45 -3 65 -10
85 -29 47 -43 54 -75 54 -254 l0 -165 -60 0 -60 0 0 140 c0 178 -13 210 -86
210 -69 0 -84 -39 -84 -216 l0 -134 -60 0 -60 0 0 225 0 226 58 -3 57 -3 5
-40z m1033 15 c56 -39 61 -56 65 -247 l4 -173 -61 0 -61 0 0 32 0 33 -26 -28
c-45 -49 -110 -60 -182 -32 -47 19 -75 64 -75 121 0 82 44 117 170 135 84 13
103 21 103 50 0 50 -93 69 -127 25 -17 -21 -25 -23 -76 -18 -31 2 -57 6 -57 9
0 13 31 61 53 81 35 33 71 42 158 39 62 -2 82 -6 112 -27z m490 -3 c44 -34 63
-60 72 -104 l7 -33 -59 0 c-55 0 -59 2 -71 29 -24 55 -106 64 -138 16 -62 -95
-22 -235 67 -235 34 0 79 32 79 57 0 9 17 13 60 13 68 0 70 -3 41 -67 -52
-113 -230 -138 -331 -47 -53 48 -73 105 -68 192 5 90 42 154 108 189 38 20 57
23 121 21 65 -3 81 -7 112 -31z m1041 9 c59 -38 66 -64 66 -254 l0 -173 -57 3
c-56 3 -58 4 -57 31 l1 28 -26 -25 c-50 -48 -125 -59 -188 -29 -51 24 -75 67
-70 126 7 79 46 108 176 130 98 17 112 27 91 65 -13 22 -24 28 -58 30 -34 3
-46 -1 -64 -21 -20 -22 -29 -24 -76 -19 -28 2 -52 9 -52 15 0 25 44 77 83 97
35 18 55 21 123 17 56 -2 90 -9 108 -21z m286 -15 l0 -39 39 39 c34 34 44 39
85 39 57 0 101 -21 119 -57 l14 -27 12 23 c32 59 142 81 206 41 53 -33 59 -57
63 -252 l4 -178 -66 0 -66 0 0 155 c0 142 -2 157 -20 175 -26 26 -70 26 -98 0
-21 -20 -22 -29 -22 -175 l0 -155 -60 0 -60 0 0 153 c0 140 -2 155 -20 175
-26 28 -73 29 -100 2 -18 -18 -20 -33 -20 -175 l0 -155 -65 0 -65 0 0 225 0
225 60 0 60 0 0 -39z m901 1 c16 -18 31 -32 34 -32 3 0 5 16 5 35 l0 35 60 0
60 0 0 -245 c0 -273 -4 -294 -61 -338 -96 -73 -299 -54 -344 33 -22 43 -20 47
36 53 45 6 55 3 81 -18 52 -44 137 -30 157 26 14 40 14 109 1 109 -5 0 -10 -5
-10 -10 0 -6 -15 -19 -32 -30 -40 -24 -126 -27 -168 -5 -128 66 -132 323 -7
400 35 22 51 25 101 22 51 -3 63 -8 87 -35z m586 2 c52 -41 83 -105 83 -171
l0 -53 -150 0 c-145 0 -150 -1 -150 -21 0 -76 113 -116 165 -59 14 16 31 20
77 20 57 0 59 -1 53 -22 -19 -61 -108 -117 -185 -118 -146 0 -233 85 -233 229
0 103 44 182 121 218 16 7 59 11 104 10 68 -2 80 -5 115 -33z m460 21 c73 -31
112 -91 120 -187 l6 -58 -158 0 -157 0 7 -27 c3 -16 17 -39 31 -53 33 -34 102
-35 136 -2 19 17 36 22 76 22 45 0 52 -3 52 -20 0 -30 -70 -96 -115 -109 -123
-34 -234 8 -280 106 -58 121 -10 281 100 329 41 18 138 17 182 -1z m1053 -28
c0 -40 -8 -55 -101 -173 l-100 -129 105 -3 106 -3 0 -49 0 -50 -190 0 -190 0
0 36 c0 30 16 55 111 172 l111 137 -106 3 -106 3 0 49 0 50 180 0 180 0 0 -43z
m649 24 c38 -20 62 -48 75 -88 6 -19 3 -21 -46 -25 -41 -2 -56 1 -67 14 -25
29 -76 42 -108 26 -35 -16 -42 -52 -14 -67 11 -6 52 -18 92 -26 40 -9 87 -24
104 -35 83 -52 68 -163 -30 -214 -59 -31 -185 -30 -241 2 -41 24 -74 67 -74
96 0 13 11 16 55 16 44 0 59 -4 79 -25 48 -47 146 -27 132 28 -5 23 -15 28
-84 43 -132 28 -172 62 -172 144 0 45 36 95 85 116 47 21 168 18 214 -5z m291
-206 l0 -225 -60 0 -60 0 0 225 0 225 60 0 60 0 0 -225z m744 195 c45 -31 84
-107 88 -175 l3 -50 -152 -3 c-167 -3 -168 -3 -138 -61 20 -40 66 -57 114 -42
22 6 42 18 45 26 4 11 22 15 66 15 59 0 61 -1 54 -22 -20 -65 -103 -118 -183
-118 -149 0 -232 82 -232 228 0 102 36 172 109 212 55 30 174 25 226 -10z
m-5416 -307 c35 -30 38 -68 8 -97 -30 -31 -65 -33 -94 -6 -63 59 21 158 86
103z m3956 -4 c15 -12 26 -30 26 -45 0 -29 -41 -74 -68 -74 -33 0 -72 38 -72
70 0 31 39 70 70 70 10 0 29 -9 44 -21z"/>
<path d="M2631 1869 c-30 -28 -41 -60 -41 -120 0 -84 35 -129 99 -129 60 0
100 77 86 166 -13 88 -90 133 -144 83z"/>
<path d="M3995 1717 c-36 -9 -53 -19 -64 -39 -14 -24 -14 -28 3 -47 14 -15 31
-21 61 -21 54 0 85 31 85 83 0 42 -3 43 -85 24z"/>
<path d="M5608 1735 c-2 -3 -29 -9 -58 -15 -61 -12 -90 -33 -90 -66 0 -28 27
-44 75 -44 51 0 85 36 85 90 0 39 -2 45 -12 35z"/>
<path d="M6784 1882 c-12 -2 -32 -14 -45 -28 -21 -22 -24 -35 -24 -101 0 -70
2 -76 28 -99 33 -28 82 -32 114 -9 44 30 54 147 18 201 -16 24 -59 42 -91 36z"/>
<path d="M7261 1864 c-17 -14 -31 -34 -31 -45 0 -17 8 -19 96 -19 94 0 95 0
89 23 -19 65 -100 87 -154 41z"/>
<path d="M7767 1879 c-15 -9 -47 -59 -47 -74 0 -3 43 -5 95 -5 61 0 95 4 95
11 0 16 -21 53 -39 66 -19 15 -80 16 -104 2z"/>
<path d="M10459 1861 c-52 -52 -42 -61 67 -61 94 0 95 0 89 23 -20 68 -105 89
-156 38z"/>
</g>
</svg>
