<?xml version="1.0" standalone="no"?>
<!DOCTYPE svg PUBLIC "-//W3C//DTD SVG 20010904//EN"
 "http://www.w3.org/TR/2001/REC-SVG-20010904/DTD/svg10.dtd">
<svg version="1.0" xmlns="http://www.w3.org/2000/svg"
 width="24.000000pt" height="24.000000pt" viewBox="0 0 24.000000 24.000000"
 preserveAspectRatio="xMidYMid meet">
<metadata>
Created by potrace 1.16, written by Peter Selinger 2001-2019
</metadata>
<g transform="translate(0.000000,24.000000) scale(0.004000,-0.004000)"
fill="#000000" stroke="none">
<path d="M2965 5303 c-11 -2 -56 -11 -100 -19 -109 -21 -266 -74 -366 -125
-287 -144 -428 -313 -483 -580 -8 -41 -21 -77 -28 -82 -350 -205 -541 -392
-631 -617 -71 -178 -83 -375 -33 -524 65 -193 195 -324 539 -542 l98 -62 2
-94 c2 -83 6 -101 34 -158 17 -36 50 -90 73 -120 48 -64 48 -76 0 -225 -16
-49 -34 -123 -40 -163 -6 -47 -33 -129 -74 -230 -108 -267 -121 -312 -121
-427 0 -97 1 -102 35 -154 19 -31 59 -73 93 -97 50 -38 66 -44 107 -44 73 0
132 45 196 151 29 46 62 90 75 99 22 14 22 14 16 -10 -40 -145 -87 -445 -87
-552 l0 -28 810 0 810 0 0 83 c0 123 -17 298 -50 536 -17 118 -33 263 -37 323
-5 93 -8 108 -23 108 -10 0 -23 13 -31 31 -11 29 -10 36 14 79 31 54 32 60 15
60 -7 0 -21 -19 -31 -42 -22 -52 -33 -44 -58 47 -27 100 -43 249 -35 329 l8
68 41 -6 c48 -8 154 -59 200 -97 90 -74 143 -295 172 -709 8 -124 20 -283 25
-355 11 -135 49 -447 56 -454 12 -13 12 20 -1 150 -8 79 -23 266 -35 414 -44
587 -77 798 -140 900 -42 67 -120 118 -310 200 -36 16 -84 41 -108 57 -53 34
-62 35 -92 3 -27 -28 -52 -32 -70 -10 -15 18 -8 96 13 147 l14 34 129 21 c75
13 186 41 265 67 75 25 145 46 156 46 10 0 45 20 78 46 33 25 107 68 165 96
142 69 199 107 269 177 106 108 195 321 208 497 11 148 -25 276 -111 403 -29
42 -71 116 -95 165 -50 103 -107 165 -196 215 -33 19 -68 41 -77 49 -10 8 -31
58 -48 111 -149 466 -473 766 -875 811 -88 10 -290 12 -330 3z m459 -42 c192
-50 419 -210 529 -371 21 -30 21 -40 2 -40 -16 0 -35 -30 -35 -57 0 -39 -23
-95 -52 -128 -20 -23 -25 -35 -16 -35 8 0 23 -9 33 -20 14 -15 -4 -10 -71 21
-198 92 -430 148 -701 169 -232 18 -487 -14 -736 -93 -59 -19 -110 -31 -112
-26 -3 4 1 25 10 45 19 45 19 55 1 48 -18 -7 -36 -49 -36 -85 0 -26 -6 -32
-56 -54 -31 -14 -79 -41 -105 -60 -45 -32 -49 -33 -49 -14 0 43 63 206 105
274 128 206 419 372 770 441 107 21 416 12 519 -15z m-183 -582 c129 -13 296
-48 434 -90 84 -26 105 -36 105 -51 0 -22 9 -22 -88 2 -250 62 -523 85 -837
71 -413 -20 -608 -75 -937 -264 -43 -24 -98 -50 -122 -57 -55 -15 -105 -62
-175 -166 -30 -43 -76 -103 -103 -132 -113 -121 -171 -362 -138 -570 17 -100
58 -218 93 -264 21 -27 56 -55 97 -76 39 -21 64 -40 63 -49 0 -9 19 -24 50
-38 29 -13 46 -24 39 -24 -40 -2 -193 100 -256 170 -84 93 -140 216 -129 282
3 21 -1 46 -11 65 -20 38 -21 98 -2 143 8 19 17 63 21 99 4 38 16 81 30 105
13 22 28 60 35 85 6 25 22 62 36 82 21 34 27 37 44 26 27 -17 36 -3 16 28 -10
14 -16 27 -14 28 2 1 21 15 43 31 22 16 90 78 150 139 117 118 234 196 294
196 23 0 30 5 33 23 3 19 22 27 168 70 388 112 793 164 1061 136z m754 -210
c21 -10 31 -23 33 -42 7 -56 -34 -42 -205 70 -24 16 -24 16 -17 -10 7 -30 0
-34 -21 -13 -12 12 -12 16 0 26 8 7 15 21 15 31 0 16 8 14 83 -15 45 -18 96
-39 112 -47z m-1005 -14 c91 -3 180 -8 199 -12 25 -4 32 -3 26 7 -6 9 -3 9 14
1 44 -24 24 -34 -51 -25 -40 5 -147 9 -238 9 -199 -1 -277 -18 -445 -99 -148
-71 -282 -174 -484 -369 -200 -195 -229 -220 -181 -157 66 86 316 327 418 403
122 90 298 180 399 205 59 14 72 20 67 34 -4 14 3 16 53 12 32 -2 132 -6 223
-9z m387 -53 c13 -18 46 -37 94 -56 41 -15 83 -33 95 -39 68 -39 92 -55 120
-84 22 -22 35 -28 42 -21 12 12 35 1 27 -12 -3 -5 17 -30 45 -56 83 -77 139
-160 211 -311 75 -156 101 -200 171 -286 54 -66 80 -111 70 -121 -3 -4 0 -11
7 -16 11 -6 12 -18 4 -59 -6 -28 -9 -51 -7 -51 2 0 10 15 19 34 16 34 42 53
54 40 3 -3 -1 -11 -10 -17 -9 -7 -26 -31 -37 -54 -25 -48 -39 -60 -54 -45 -8
8 -6 31 6 78 9 36 16 68 14 69 -2 1 -25 5 -52 9 -43 5 -47 4 -41 -12 4 -9 9
-32 12 -50 7 -39 23 -24 23 21 0 19 4 27 13 24 14 -5 13 -81 -3 -123 -11 -27
-11 -27 -30 -8 -11 11 -27 46 -35 79 -9 33 -25 69 -35 81 -40 42 -20 55 43 29
20 -8 46 -15 58 -15 20 0 19 3 -13 43 -57 70 -102 147 -181 308 -48 99 -94
177 -128 217 -98 118 -261 231 -461 321 -54 24 -98 50 -98 57 0 8 -8 14 -19
14 -21 0 -45 23 -34 33 3 4 25 7 48 7 34 0 45 -5 62 -28z m703 -2 c5 0 10 5
12 12 9 25 126 -54 240 -162 106 -100 168 -178 168 -212 0 -7 16 -33 36 -58
44 -55 98 -167 115 -240 17 -70 17 -237 0 -315 -31 -144 -105 -280 -191 -351
-39 -33 -33 -20 26 53 55 67 111 169 137 246 16 49 20 90 21 193 l1 130 -51
85 c-29 46 -79 140 -112 209 -38 79 -81 150 -116 192 -49 59 -67 72 -153 113
-54 26 -110 58 -124 72 -26 23 -28 24 -38 6 -9 -16 -10 -15 -11 8 0 30 23 59
28 35 2 -9 7 -16 12 -16z m-1221 -112 c17 -132 48 -281 78 -368 27 -81 98
-220 146 -287 30 -43 48 -52 29 -16 -28 52 -68 471 -57 600 l7 85 25 -24 c41
-38 100 -175 178 -410 40 -123 76 -230 80 -239 4 -12 -6 -21 -42 -35 -37 -15
-73 -19 -160 -19 -62 0 -113 -2 -113 -5 0 -3 9 -13 20 -23 18 -15 20 -15 20
-1 0 11 5 14 18 9 9 -4 40 -9 67 -12 50 -5 51 -6 47 -38 -8 -64 4 -71 21 -13
19 64 19 64 102 94 33 12 87 32 120 44 108 40 162 11 210 -112 37 -95 48 -68
28 70 -15 100 -13 132 6 132 30 0 60 -195 61 -392 0 -100 11 -125 29 -65 8 25
9 17 5 -38 -17 -198 -70 -327 -190 -454 -94 -100 -152 -143 -243 -180 -122
-51 -205 -64 -365 -58 -77 3 -170 11 -204 17 -71 14 -70 7 -28 107 15 34 29
89 32 122 l7 60 46 8 c112 19 451 7 626 -23 l30 -5 -26 15 c-57 33 -194 47
-434 45 -173 -1 -229 2 -227 11 1 6 5 61 9 121 7 123 1 139 -53 139 -27 0 -36
-6 -49 -30 -8 -16 -15 -44 -15 -63 0 -45 -7 -50 -41 -24 -27 19 -33 20 -62 8
-69 -29 -79 -26 -129 28 -26 28 -51 51 -56 51 -4 0 -23 -16 -42 -35 -19 -19
-40 -35 -47 -35 -22 0 -14 27 13 44 18 13 24 24 22 44 -3 26 -5 27 -58 25
l-55 -3 -30 63 c-22 46 -36 63 -53 65 -16 3 -21 8 -18 20 3 9 12 67 21 127 15
105 53 215 75 215 16 0 23 -74 13 -135 -6 -33 -9 -62 -7 -64 2 -2 14 21 27 51
42 95 89 107 237 63 46 -14 96 -25 112 -25 23 0 32 -8 54 -51 14 -28 28 -49
30 -46 3 3 -4 23 -15 46 -28 53 -27 58 14 65 51 10 43 24 -10 16 -105 -16
-364 49 -382 96 -13 34 11 68 77 106 36 21 70 38 77 38 8 0 13 -27 15 -87 3
-99 4 -98 48 45 17 56 35 102 41 102 6 0 35 12 65 26 113 54 145 184 45 184
-12 0 -21 3 -21 8 0 11 54 141 78 188 20 39 83 104 101 104 5 0 14 -42 20 -92z
m1282 -137 c32 -32 37 -62 15 -80 -15 -13 -51 0 -108 41 -25 17 -30 18 -49 5
-20 -15 -20 -15 9 -32 36 -22 57 -54 44 -67 -6 -6 -27 6 -59 34 -27 24 -64 50
-81 57 -18 7 -32 17 -32 22 0 14 39 10 65 -7 22 -15 24 -14 40 10 20 29 37 33
55 11 7 -8 16 -15 21 -15 5 0 6 7 3 15 -10 26 11 17 34 -15 12 -16 31 -34 43
-40 20 -11 20 -11 5 18 -9 17 -28 39 -43 51 -23 16 -24 20 -10 21 10 0 32 -13
48 -29z m-1423 -93 c35 -35 -9 -111 -88 -151 -30 -15 -56 -23 -58 -18 -2 6 15
49 37 96 36 78 42 85 68 85 16 0 34 -5 41 -12z m793 -192 c32 -75 59 -140 59
-145 0 -7 -189 -101 -203 -101 -3 0 1 21 9 46 7 25 23 115 35 200 13 89 26
151 31 146 5 -5 36 -71 69 -146z m-1541 -99 c0 -1 -16 -41 -36 -87 -43 -102
-68 -193 -89 -320 -8 -52 -18 -110 -21 -129 -12 -71 -21 -11 -14 85 10 119 31
212 72 309 48 114 49 109 -13 84 -97 -38 -129 -48 -129 -40 0 14 44 39 123 71
62 25 107 37 107 27z m1 -431 c4 -15 8 -76 8 -134 1 -96 13 -170 36 -226 6
-14 5 -18 -6 -14 -25 8 -39 55 -50 165 -17 166 -17 167 -40 103 -10 -30 -19
-55 -19 -56 0 -2 -7 -10 -16 -18 -30 -30 -33 -16 -9 37 14 28 25 61 25 71 0
29 41 107 53 103 6 -2 14 -16 18 -31z m2062 14 c18 -15 27 -17 30 -8 3 9 13 5
31 -12 l26 -26 -14 -81 c-8 -44 -19 -90 -25 -101 -15 -27 -14 -32 4 -32 22 0
18 -13 -10 -40 -14 -13 -25 -30 -25 -37 0 -8 -8 -17 -19 -21 -18 -7 -84 -82
-126 -144 -11 -16 -32 -31 -46 -34 -29 -6 -112 -84 -90 -84 32 0 142 35 210
66 41 19 77 31 80 28 16 -17 -70 -65 -178 -99 -64 -21 -134 -46 -156 -57 -28
-13 -51 -17 -76 -13 -22 4 -40 2 -44 -4 -9 -15 -25 -14 -25 2 0 15 95 98 104
90 3 -4 6 -18 6 -31 0 -25 0 -25 20 -7 11 10 34 40 50 67 l30 48 -29 0 c-17 0
-41 4 -55 10 -23 8 -25 12 -15 37 14 39 54 78 100 98 21 10 37 20 35 22 -2 3
-18 -3 -35 -12 -28 -14 -46 -5 -21 10 6 4 8 15 5 24 -7 23 38 179 74 257 16
33 39 71 52 82 30 29 97 30 132 2z m-1963 -110 c27 -14 38 -38 60 -127 22 -82
19 -101 -10 -66 -9 12 -20 19 -24 16 -11 -11 -6 -23 10 -23 13 0 15 -7 10 -37
-4 -21 -7 -48 -7 -61 -1 -18 -6 -22 -22 -20 -16 2 -32 23 -57 72 -28 55 -35
82 -38 141 -6 103 19 136 78 105z m717 -237 c-12 -266 -64 -398 -232 -584
-103 -114 -169 -245 -195 -387 -5 -31 -21 -156 -35 -277 -50 -451 -74 -561
-132 -626 -43 -47 -112 -72 -157 -56 -48 17 -141 116 -159 171 -38 112 -15
213 127 556 22 54 41 122 50 185 9 55 26 127 40 160 13 33 29 85 36 117 l13
56 -48 72 c-98 147 -134 278 -100 366 17 44 69 114 85 114 4 0 3 -17 -2 -37
-16 -57 -21 -143 -10 -143 12 0 29 70 42 174 12 96 34 144 78 169 30 18 35 18
79 3 63 -22 69 -21 100 14 14 17 32 30 40 30 8 0 29 -16 48 -35 41 -40 93 -53
142 -36 39 15 55 6 79 -42 9 -16 18 -26 22 -22 3 3 9 37 13 75 7 77 20 100 57
100 l25 0 -6 -117z m588 -500 c-5 -57 -3 -74 14 -108 27 -52 26 -80 -5 -143
-62 -125 -254 -210 -388 -172 -57 16 -123 72 -147 124 -29 66 2 69 75 9 16
-13 31 -22 34 -19 12 13 -34 60 -76 78 -26 11 -49 22 -50 24 -9 7 12 48 40 80
21 24 32 48 36 79 l5 45 122 0 c125 0 241 21 302 54 15 8 32 15 36 16 5 0 5
-30 2 -67z m-557 15 c69 -14 78 -26 68 -83 -6 -33 -8 -33 -37 -23 -43 15 -95
5 -185 -35 -95 -42 -124 -51 -124 -39 0 5 31 43 69 85 39 42 75 86 81 98 9 16
18 20 38 15 15 -3 55 -11 90 -18z m-138 -170 c0 -27 -41 -176 -82 -301 l-43
-132 -3 68 c-2 37 -7 67 -12 67 -12 0 -17 -22 -25 -105 -13 -136 -41 -237 -79
-284 -6 -8 -11 -48 -12 -90 0 -42 -7 -94 -15 -116 -17 -44 -119 -208 -126
-201 -5 5 60 495 88 661 22 132 68 281 104 341 19 32 35 43 106 70 97 38 99
38 99 22z m538 -688 c48 -34 54 -36 86 -15 29 19 46 13 76 -27 22 -30 22 -31
4 -45 -14 -10 -19 -27 -19 -61 -1 -26 -5 -55 -9 -65 -7 -14 -4 -19 13 -24 26
-7 26 -11 0 -39 -11 -12 -16 -24 -11 -28 5 -3 19 9 32 26 22 30 20 38 -15 51
-6 3 -2 18 8 36 18 31 18 33 1 52 -17 18 -16 20 5 43 13 14 19 29 15 39 -9 24
38 23 59 -1 70 -78 51 -201 -37 -238 -23 -9 -66 -30 -97 -45 -31 -16 -65 -29
-75 -29 -11 0 -42 -11 -71 -24 -47 -22 -55 -23 -80 -11 -17 8 -97 17 -203 24
-97 5 -184 13 -194 17 -14 5 -16 13 -11 38 4 17 8 56 10 85 2 45 7 59 29 77
29 26 34 49 11 58 -22 8 -19 22 14 58 l29 32 158 6 c121 5 166 10 189 23 39
21 36 22 83 -13z m-501 -95 l22 -15 -30 -56 c-21 -40 -29 -70 -29 -105 0 -57
-13 -63 -53 -23 -46 46 -44 143 4 201 15 18 59 17 86 -2z m921 -380 c27 -81
-3 -275 -43 -275 -24 0 -54 32 -71 75 -9 25 -21 45 -25 45 -5 0 -9 -27 -9 -60
0 -56 -2 -60 -23 -60 -41 0 -47 17 -46 130 1 58 4 116 8 130 17 62 80 16 108
-79 10 -34 20 -61 23 -61 3 0 5 37 5 82 0 100 7 121 37 116 17 -2 27 -14 36
-43z m-888 24 c0 -6 -5 -19 -10 -29 -6 -10 -15 -53 -21 -94 -19 -143 -57 -191
-142 -183 -59 5 -90 32 -90 77 0 42 24 66 52 51 11 -7 21 -18 21 -25 0 -20 38
-26 55 -9 11 10 15 36 15 87 0 70 -1 73 -22 69 -13 -2 -30 1 -38 6 -20 14 -2
43 31 52 40 11 149 10 149 -2z m290 -29 c0 -43 13 -43 55 0 22 22 45 40 52 40
30 0 6 -77 -36 -114 -29 -26 -27 -38 16 -102 29 -44 35 -59 26 -72 -17 -28
-57 -27 -73 3 -18 33 -26 32 -39 -6 -8 -24 -16 -30 -33 -27 -29 4 -36 31 -37
143 -1 93 10 153 30 166 21 13 39 -2 39 -31z m-165 -90 c0 -89 -4 -124 -18
-155 -18 -39 -19 -39 -34 -20 -12 16 -14 40 -9 131 6 125 17 167 44 162 15 -3
17 -17 17 -118z m516 101 c32 -27 16 -55 -34 -59 -47 -4 -69 -29 -42 -48 10
-8 27 -14 37 -14 12 0 18 -8 18 -24 0 -19 -6 -25 -27 -28 -39 -4 -35 -29 7
-43 27 -9 35 -17 35 -36 0 -21 -5 -24 -40 -27 -22 -2 -59 -1 -82 3 l-43 6 0
138 c0 76 3 141 7 144 3 4 37 7 74 7 51 0 72 -4 90 -19z"/>
<path d="M2890 1585 c-7 -8 -19 -15 -26 -15 -11 0 -11 -5 -2 -26 9 -20 9 -30
-1 -46 -16 -25 -6 -33 50 -42 22 -4 39 -12 39 -19 0 -18 40 -53 70 -62 42 -12
70 -34 70 -55 0 -16 7 -20 31 -20 l32 0 -27 21 c-30 23 -24 46 17 68 20 11 32
11 61 1 30 -10 38 -9 51 4 32 31 15 45 -30 24 -40 -18 -49 1 -20 42 13 19 27
46 30 60 5 23 2 27 -38 38 -44 13 -45 13 -92 -22 -55 -42 -61 -43 -76 -13 -24
46 -62 77 -95 77 -17 0 -37 -7 -44 -15z m299 -51 c2 -2 -8 -19 -23 -38 -27
-37 -31 -46 -18 -46 5 0 19 18 31 41 16 27 27 37 33 31 14 -14 -38 -90 -81
-119 -47 -32 -104 -31 -136 2 -43 42 -30 65 45 79 20 3 51 19 70 36 31 26 60
31 79 14z"/>
</g>
</svg>
